<svg xmlns="http://www.w3.org/2000/svg" xmlns:xlink="http://www.w3.org/1999/xlink" width="115" height="55" viewBox="0 0 115 55"><defs><path id="z7n8a" d="M415.42 66.32a1.4 1.4 0 0 1 0-2.81 16 16 0 0 0 15.95-16.01 15.92 15.92 0 0 0-8.16-13.98 1.4 1.4 0 0 1-.77-1.25v-6.55c0-.67-.54-1.21-1.21-1.21h-11.6c-.68 0-1.22.54-1.22 1.21v4.32a18.59 18.59 0 0 1 7.01-1.37 1.4 1.4 0 0 1 0 2.82 16 16 0 0 0-15.94 16c0 5.8 3.12 11.14 8.15 13.98.46.22.78.7.78 1.26v6.54c0 .67.54 1.22 1.21 1.22h11.6c.68 0 1.22-.55 1.22-1.22v-4.31a18.59 18.59 0 0 1-7.02 1.36zm13.12-32.27a18.85 18.85 0 0 1-3.3 29.48v5.74c0 2.23-1.8 4.03-4.01 4.03h-11.6a4.03 4.03 0 0 1-4.02-4.03v-5.73a18.87 18.87 0 0 1 0-32.07v-5.75c0-2.22 1.8-4.03 4.01-4.03h11.6c2.22 0 4.02 1.8 4.02 4.03v5.74c1.2.73 2.3 1.6 3.3 2.59zm-13.12 27.37c-7.62 0-13.81-6.22-13.81-13.86 0-7.65 6.2-13.86 13.8-13.86 7.62 0 13.82 6.21 13.82 13.86 0 7.64-6.2 13.86-13.81 13.86zm0-24.9a11.03 11.03 0 0 0 0 22.08 11.03 11.03 0 0 0 0-22.09zm-.03 15.21a1.4 1.4 0 0 1-.99-.41l-3.96-3.97a1.41 1.41 0 0 1 0-2 1.4 1.4 0 0 1 1.99 0l2.96 2.98 4.37-4.38a1.4 1.4 0 0 1 1.99 0c.54.55.54 1.44 0 1.99l-5.37 5.38a1.4 1.4 0 0 1-.99.41zm21.88-1.52a1.4 1.4 0 0 1-1.4-1.4v-2.5a1.4 1.4 0 1 1 2.8 0v2.5c0 .77-.63 1.4-1.4 1.4zm10.2-11.33a6.34 6.34 0 0 1 6.34-6.22c1.52 0 2.9.5 4 1.34.4.35.48.95.16 1.39-.34.43-.98.5-1.38.19a4.58 4.58 0 0 0-5.9.3 4.2 4.2 0 0 0 0 6.01 4.57 4.57 0 0 0 5.9.29c.4-.3 1.04-.23 1.38.19.32.43.25 1.05-.17 1.38a6.46 6.46 0 0 1-3.99 1.35 6.32 6.32 0 0 1-6.34-6.22zm15.59 5.27c0 .53-.44.95-.97.95a.98.98 0 0 1-.95-.95v-10.2c0-.53.43-.95.95-.95.53 0 .97.42.97.95v3c.55-.28 1.17-.5 1.84-.5 2.1 0 3.77 1.72 3.77 3.8v3.9c0 .53-.41.95-.95.95a.94.94 0 0 1-.95-.95v-3.9c0-1.03-.83-1.86-1.87-1.87a1.89 1.89 0 0 0-1.84 1.86zm14-6.78c0 .49-.4.92-.92.92-.4 0-.75.1-1.04.33-.33.2-.59.5-.8.83-.4.55-.62 1.2-.7 1.45v3.28c0 .5-.44.92-.95.92a.92.92 0 0 1-.92-.92v-6.8c0-.5.42-.9.92-.9.51 0 .95.4.95.9v.11c.1-.12.24-.25.36-.34.57-.38 1.31-.7 2.18-.68.52 0 .91.4.91.9zm3.05 6.47a4.46 4.46 0 0 1 0-6.06 4.03 4.03 0 0 1 2.97-1.32c1.15 0 2.18.5 2.89 1.31a4.32 4.32 0 0 1 1.21 3.02c0 1.22-.43 2.29-1.21 3.05a3.82 3.82 0 0 1-2.89 1.31c-1.19 0-2.19-.5-2.97-1.31zm.7-3.05c0 .75.22 1.35.62 1.84.43.41 1 .64 1.65.64.6 0 1.16-.23 1.6-.64.43-.49.67-1.1.67-1.84 0-.7-.24-1.33-.68-1.8a2.44 2.44 0 0 0-1.59-.65 2.5 2.5 0 0 0-1.65.66c-.4.46-.63 1.09-.63 1.8zm16.51-.74v4.13c0 .5-.4.92-.9.92a.93.93 0 0 1-.91-.92v-4.13c0-.97-.81-1.74-1.8-1.74-.97 0-1.73.77-1.73 1.74v4.13c0 .05 0 .1-.03.17a.94.94 0 0 1-.92.75.91.91 0 0 1-.91-.92v-6.8c0-.5.4-.92.91-.92.37 0 .7.2.85.53a3.46 3.46 0 0 1 1.83-.53c2 0 3.61 1.64 3.61 3.6zm4.19 3.79a4.46 4.46 0 0 1 0-6.06 4.03 4.03 0 0 1 2.97-1.32c1.14 0 2.18.5 2.88 1.31a4.32 4.32 0 0 1 1.21 3.02c0 1.22-.43 2.29-1.2 3.05a3.82 3.82 0 0 1-2.9 1.31c-1.18 0-2.19-.5-2.96-1.31zm.69-3.05c0 .75.22 1.35.62 1.84.43.41 1 .64 1.66.64.6 0 1.16-.23 1.59-.64.43-.49.67-1.1.67-1.84 0-.7-.24-1.33-.67-1.8a2.44 2.44 0 0 0-1.6-.65 2.5 2.5 0 0 0-1.65.66c-.4.46-.62 1.09-.62 1.8zM448 61.55v-10.2c0-.53.44-.95.95-.95h2.46a3.28 3.28 0 0 1 2.62 5.25 3.7 3.7 0 0 1-1.95 6.84h-3.06l-.01-.01c-.04 0-.04.02-.06.02a.96.96 0 0 1-.95-.95zm1.92-6.46h1.49c.76 0 1.36-.65 1.36-1.4 0-.77-.6-1.37-1.36-1.37h-1.49zm0 5.49h2.16a1.79 1.79 0 1 0 0-3.58h-2.16zm15.47 1c0 .5-.42.92-.92.92a.94.94 0 0 1-.9-.74 4.02 4.02 0 0 1-5.24-.52 4.43 4.43 0 0 1-1.17-3.05c0-1.19.43-2.26 1.18-3.04a3.94 3.94 0 0 1 5.24-.54c.1-.42.44-.75.9-.75.5 0 .9.41.9.93zm-1.83-3.39c0-.72-.26-1.34-.68-1.77-.41-.47-1-.71-1.6-.71-.63 0-1.21.24-1.61.7a2.53 2.53 0 0 0-.66 1.78c0 .71.24 1.34.66 1.79.4.43.98.67 1.6.67.61 0 1.2-.24 1.61-.67a2.6 2.6 0 0 0 .68-1.79zm4.8 1.84a.9.9 0 0 1 1.3-.14c.45.38 1.22.78 1.9.76.46 0 .9-.16 1.17-.33.24-.2.31-.38.31-.52a.26.26 0 0 0-.05-.17c-.02-.05-.08-.12-.22-.2a3.96 3.96 0 0 0-1.39-.5h-.01a6.66 6.66 0 0 1-1.5-.44 2.89 2.89 0 0 1-1.2-1 2.1 2.1 0 0 1-.3-1.1c0-.79.46-1.46 1.03-1.9.6-.4 1.33-.63 2.12-.63 1.2 0 2.04.57 2.6.95.41.28.53.84.27 1.28a.92.92 0 0 1-1.28.24c-.55-.36-1.03-.64-1.59-.64-.43 0-.8.14-1.03.31-.23.16-.28.31-.28.4 0 .07 0 .08.03.14.02.03.07.1.2.17.22.15.67.31 1.26.41l.01.02h.02c.57.1 1.1.26 1.6.5.47.2.94.54 1.23 1.02.21.35.33.74.33 1.14a2.5 2.5 0 0 1-1.09 2c-.62.44-1.4.7-2.24.7a5.02 5.02 0 0 1-3.08-1.2.92.92 0 0 1-.12-1.27zm8.31-1.85a4.28 4.28 0 0 1 4.22-4.32 4.13 4.13 0 0 1 4.16 4v.1l-.01.15c-.06.41-.42.69-.9.69h-5.5c.09.4.28.85.6 1.14.35.42 1.04.73 1.65.78.62.05 1.36-.1 1.8-.43.36-.38 1.07-.33 1.3-.06.22.25.39.76 0 1.13a4.37 4.37 0 0 1-3.1 1.14 4.29 4.29 0 0 1-4.22-4.32zm1.89-.85h4.89c-.18-.69-1.06-1.71-2.56-1.83a2.41 2.41 0 0 0-2.33 1.83z"/></defs><g><g transform="translate(-395 -20)"><use fill="#fff" xlink:href="#z7n8a"/></g></g></svg>